HIERARCHY
ROOT Hips
{
    OFFSET 0.000000 0.000000 0.000000
    CHANNELS 6 Xposition Yposition Zposition Zrotation Xrotation Yrotation
    JOINT Spine
    {
        OFFSET -0.000000 7.755141 0.000000
        CHANNELS 3 Zrotation Xrotation Yrotation
        JOINT Spine1
        {
            OFFSET -0.000000 20.093737 0.000000
            CHANNELS 3 Zrotation Xrotation Yrotation
            JOINT Neck
            {
                OFFSET -0.000000 21.985235 0.000000
                CHANNELS 3 Zrotation Xrotation Yrotation
                JOINT Head
                {
                    OFFSET -0.000000 14.659108 1.891498
                    CHANNELS 3 Zrotation Xrotation Yrotation
                    End Site
                    {
                        OFFSET -0.000000 18.914978 0.000000
                    }
                }
            }
            JOINT LeftShoulder
            {
                OFFSET 3.789246 18.853123 -0.208244
                CHANNELS 3 Zrotation Xrotation Yrotation
                JOINT LeftArm
                {
                    OFFSET 9.468541 0.000000 0.000000
                    CHANNELS 3 Zrotation Xrotation Yrotation
                    JOINT LeftForeArm
                    {
                        OFFSET 31.465202 0.000000 0.000000
                        CHANNELS 3 Zrotation Xrotation Yrotation
                        JOINT LeftHand
                        {
                            OFFSET 26.964474 0.000000 0.000000
                            CHANNELS 3 Zrotation Xrotation Yrotation
                            End Site
                            {
                                OFFSET 14.186234 0.000000 0.000000
                            }
                        }
                    }
                }
            }
            JOINT RightShoulder
            {
                OFFSET -3.772747 18.853123 -0.208244
                CHANNELS 3 Zrotation Xrotation Yrotation
                JOINT RightArm
                {
                    OFFSET -9.468541 0.000000 0.000000
                    CHANNELS 3 Zrotation Xrotation Yrotation
                    JOINT RightForeArm
                    {
                        OFFSET -31.465202 0.000000 0.000000
                        CHANNELS 3 Zrotation Xrotation Yrotation
                        JOINT RightHand
                        {
                            OFFSET -26.964474 0.000000 0.000000
                            CHANNELS 3 Zrotation Xrotation Yrotation
                            End Site
                            {
                                OFFSET -14.186234 0.000000 0.000000
                            }
                        }
                    }
                }
            }
        }
    }
    JOINT LeftUpLeg
    {
        OFFSET 9.457489 0.000000 0.000000
        CHANNELS 3 Zrotation Xrotation Yrotation
        JOINT LeftLeg
        {
            OFFSET -0.000000 -40.941395 0.000000
            CHANNELS 3 Zrotation Xrotation Yrotation
            JOINT LeftFoot
            {
                OFFSET -0.000000 -37.782906 0.000000
                CHANNELS 3 Zrotation Xrotation Yrotation
                JOINT LeftToeBase
                {
                    OFFSET -0.000000 -6.147367 14.186234
                    CHANNELS 3 Zrotation Xrotation Yrotation
                    End Site
                    {
                        OFFSET -0.000000 0.000000 3.782995
                    }
                }
            }
        }
    }
    JOINT RightUpLeg
    {
        OFFSET -9.457489 0.000000 0.000000
        CHANNELS 3 Zrotation Xrotation Yrotation
        JOINT RightLeg
        {
            OFFSET -0.000000 -40.941395 0.000000
            CHANNELS 3 Zrotation Xrotation Yrotation
            JOINT RightFoot
            {
                OFFSET -0.000000 -37.782906 0.000000
                CHANNELS 3 Zrotation Xrotation Yrotation
                JOINT RightToeBase
                {
                    OFFSET -0.000000 -6.147367 14.186234
                    CHANNELS 3 Zrotation Xrotation Yrotation
                    End Site
                    {
                        OFFSET -0.000000 0.000000 3.782995
                    }
                }
            }
        }
    }
}
MOTION
Frames:    9
Frame Time:    0.010000
50.463749    89.374283    59.622528    0.001646    -1.564104    11.215086    2.974669    -7.230669    4.091030    -1.795783    1.314564    1.319414    -2.753531    14.107707    3.754874    -7.142530    2.128633    4.223369    0.596519    -0.240737    1.383832    -39.440407    -26.852644    -12.929463    -1.717942    -48.559120    -76.576073    22.011671    -46.122543    25.053080    -2.444689    8.342280    -3.485569    61.029606    80.400833    16.151806    -20.131470    -23.058691    10.948464    30.892288    -21.512472    -1.006694    0.453420    2.482567    -1.511967    -2.606973    7.119595    -3.108680    5.033197    -8.889460    16.316925    0.000000    0.000000    0.000000    -5.795472    3.412573    -1.525433    2.146084    9.436596    -3.416235    6.252158    -10.750608    -14.266585    0.000000    0.000000    0.000000    
50.384022    89.385185    59.640587    -0.061336    -1.594159    11.032922    2.873749    -7.188115    4.100567    -1.659825    1.310488    1.323526    -2.761267    14.067792    3.708144    -6.934463    2.048625    4.138661    0.473415    -0.134207    1.469878    -39.627842    -26.930897    -12.966732    -1.828969    -48.258488    -77.910385    22.790373    -45.664513    25.750116    -2.515343    8.438508    -3.589602    60.399956    80.215637    16.823536    -19.918304    -22.914753    11.082882    30.651926    -21.335892    -0.903490    0.568710    2.542864    -1.410357    -2.615506    7.076179    -3.041918    4.981605    -8.909908    16.345516    0.000000    0.000000    0.000000    -5.678597    3.471393    -1.450514    2.129525    9.282513    -3.419878    6.023667    -10.550316    -13.992693    0.000000    0.000000    0.000000    
50.282257    89.400436    59.630703    -0.129288    -1.578718    10.844304    2.666222    -7.002179    4.212533    -1.399832    1.056142    1.360673    -2.743650    14.055529    3.637540    -6.738346    1.978523    4.037731    0.344967    -0.074725    1.352661    -39.771927    -26.659103    -12.827741    -1.376690    -48.215084    -78.917152    23.018307    -45.268806    26.211475    -2.553349    8.575210    -3.941152    59.676651    80.335777    17.557432    -19.967878    -22.947077    11.079844    30.862062    -21.396667    -1.022231    0.691144    2.514046    -1.261786    -2.619414    7.074447    -2.973292    4.674577    -8.915691    16.357676    0.000000    0.000000    0.000000    -5.564445    3.448487    -1.351873    2.134632    9.155552    -3.362043    5.970830    -10.429245    -13.946649    0.000000    0.000000    0.000000    
50.200783    89.403412    59.618793    -0.151473    -1.575884    10.645540    2.537591    -6.960780    4.130752    -1.337517    1.078745    1.336048    -2.684565    13.965504    3.698233    -6.576228    1.883144    4.088577    0.348411    -0.062638    1.465398    -40.018681    -26.850571    -12.595822    -1.353073    -47.653900    -80.305725    23.269314    -44.597744    26.476204    -2.536027    8.490629    -3.784440    60.333866    79.887764    16.846386    -19.658825    -22.800409    11.379977    30.491152    -21.319031    -1.392715    0.743472    2.522183    -1.121072    -2.606995    7.086972    -3.199188    4.681950    -9.059277    16.638859    0.000000    0.000000    0.000000    -5.513422    3.428457    -1.322968    2.116043    9.084080    -3.167765    5.654064    -10.418312    -13.965247    0.000000    0.000000    0.000000    
50.160694    89.403130    59.643627    -0.223696    -1.526174    10.446034    2.665112    -7.116911    4.119248    -1.545932    1.264937    1.332793    -2.658466    13.854222    3.774061    -6.221198    1.820024    4.121117    0.385906    -0.047502    1.596586    -40.151970    -25.435686    -12.654697    0.492143    -48.928486    -80.387093    23.641451    -44.648975    27.355038    -2.464754    8.437683    -3.695057    59.343891    80.460892    18.024107    -19.907396    -23.057508    10.741652    30.297943    -21.599945    -1.162394    0.783659    2.547359    -1.115172    -2.545299    6.986808    -3.039420    4.927032    -8.935432    16.662083    0.000000    0.000000    0.000000    -5.487258    3.427653    -1.347923    2.198365    8.938286    -2.739316    5.673007    -10.343572    -13.995777    0.000000    0.000000    0.000000    
50.079952    89.411568    59.626343    -0.271142    -1.483081    10.212156    2.581380    -7.033314    4.150274    -1.519250    1.139969    1.343665    -2.547648    13.908875    3.702988    -6.097714    1.611763    4.046066    0.358903    0.047822    1.711160    -40.410297    -25.007437    -12.612486    1.297227    -48.991074    -81.290070    24.131681    -44.054749    27.810583    -2.416617    8.439272    -3.743897    60.186687    79.965431    17.024954    -19.614601    -22.839031    11.289399    30.151508    -21.409676    -1.539245    0.845325    2.518185    -0.988059    -2.524000    6.948788    -2.918513    4.624171    -8.932499    16.691393    0.000000    0.000000    0.000000    -5.433596    3.353977    -1.263252    2.225613    8.840380    -2.737343    5.754603    -10.279552    -14.006945    0.000000    0.000000    0.000000    
49.988235    89.415756    59.629082    -0.336541    -1.470921    10.002303    2.537642    -6.979237    4.170672    -1.555895    1.085500    1.351415    -2.412081    13.845613    3.667580    -5.903205    1.579680    4.016002    0.333056    0.112059    1.728191    -40.559357    -24.991499    -12.281708    1.792459    -48.141129    -82.532539    24.151045    -42.865837    27.324093    -2.313360    8.493975    -3.784508    59.920383    79.996765    17.262846    -19.792704    -22.617279    11.042173    31.009394    -21.080196    -0.995469    0.939009    2.538201    -0.868866    -2.490494    6.891262    -2.830909    4.565600    -9.078322    16.674656    0.000000    0.000000    0.000000    -5.318974    3.324461    -1.245420    2.193343    8.731716    -2.828473    5.746940    -10.170423    -13.707590    0.000000    0.000000    0.000000    
49.874908    89.420441    59.603798    -0.375016    -1.415399    9.750932    2.446512    -6.881276    4.229033    -1.620523    0.954251    1.372198    -2.283991    13.806455    3.659013    -5.592834    1.491701    3.992062    0.341046    0.164046    1.768982    -40.740120    -24.783062    -12.046133    2.209685    -47.843983    -83.822906    24.159092    -42.213463    27.449526    -2.170577    8.471088    -3.835284    60.090714    79.806702    17.063330    -19.587084    -22.559853    11.179629    30.726246    -21.065092    -1.185182    1.029951    2.472143    -0.706826    -2.514430    6.889856    -2.609018    4.506888    -8.950676    16.607088    0.000000    0.000000    0.000000    -5.235447    3.222951    -1.123146    2.174646    8.657492    -2.756586    5.722382    -10.127150    -13.671762    0.000000    0.000000    0.000000    
49.779636    89.429184    59.608925    -0.433531    -1.408674    9.509200    2.372209    -6.880150    4.250191    -1.600939    1.018750    1.381521    -2.221483    13.705550    3.621154    -5.342362    1.389686    3.930607    -0.067099    0.508380    1.993388    -40.667355    -24.360147    -12.257777    3.030017    -48.039070    -84.846428    23.808706    -41.804989    28.091743    -2.174530    8.467151    -3.900003    59.680164    79.639977    17.530767    -19.406275    -22.433632    11.252818    30.646812    -20.966528    -1.281238    1.130648    2.508772    -0.581944    -2.500981    6.842143    -2.655843    4.560025    -9.067632    16.717258    0.000000    0.000000    0.000000    -5.112805    3.202907    -1.052991    2.119390    8.533348    -2.939858    5.766525    -9.995159    -13.336861    0.000000    0.000000    0.000000    
